<?xml version="1.0" encoding="UTF-8" standalone="no" ?>
<!DOCTYPE svg PUBLIC "-//W3C//DTD SVG 1.1//EN" "http://www.w3.org/Graphics/SVG/1.1/DTD/svg11.dtd">
<svg xmlns="http://www.w3.org/2000/svg" xmlns:xlink="http://www.w3.org/1999/xlink" version="1.1" width="1080" height="1080" viewBox="0 0 1080 1080" xml:space="preserve">
<desc>Created with Fabric.js 5.2.4</desc>
<defs>
</defs>
<rect x="0" y="0" width="100%" height="100%" fill="transparent"></rect>
<g transform="matrix(1 0 0 1 540 540)" id="5ae9242d-718a-4654-bf5c-f39a9bf9d012"  >
<rect style="stroke: none; stroke-width: 1; stroke-dasharray: none; stroke-linecap: butt; stroke-dashoffset: 0; stroke-linejoin: miter; stroke-miterlimit: 4; fill: rgb(255,255,255); fill-rule: nonzero; opacity: 1; visibility: hidden;" vector-effect="non-scaling-stroke"  x="-540" y="-540" rx="0" ry="0" width="1080" height="1080" />
</g>
<g transform="matrix(1 0 0 1 540 540)" id="a1e26123-3b29-49a8-87aa-9235a449d11f"  >
</g>
<g transform="matrix(1 0 0 1 540 540)" id="svg_1"  >
<path style="stroke: rgb(0,0,0); stroke-width: 0; stroke-dasharray: none; stroke-linecap: butt; stroke-dashoffset: 0; stroke-linejoin: miter; stroke-miterlimit: 4; fill: rgb(255,255,255); fill-rule: nonzero; opacity: 1;" vector-effect="non-scaling-stroke"  transform=" translate(-65, -65)" d="M 116.085 33.22 C 116.07926799935636 31.887592108973884 115.19541401155372 30.718623931557502 113.91499999999999 30.349999999999998 L 87.535 4.659999999999997 C 86.96779408483819 3.9669091345553036 86.12059220065979 3.563479665898922 85.225 3.559999999999997 L 39.224999999999994 3.5599999999999965 C 36.26475374090694 3.5599999999999965 33.864999999999995 5.959753740906945 33.864999999999995 8.919999999999998 L 33.864999999999995 23.97 L 19.274999999999995 23.97 C 16.31475374090694 23.97 13.914999999999996 26.369753740906948 13.914999999999996 29.33 L 13.914999999999996 121.08 C 13.914999999999996 124.04024625909305 16.314753740906944 126.44 19.275 126.44 L 90.815 126.44 C 93.76352381253793 126.42349681007887 96.14504618466084 124.02856999683706 96.145 121.08 L 96.145 106.08 L 110.735 106.08 C 113.68352381253793 106.06349681007887 116.06504618466084 103.66856999683706 116.065 100.72 Q 116.065 66.99000000000001 116.065 33.269999999999996 L 116.085 33.22 z M 39.82499999999999 23.97 L 39.82499999999999 9.559999999999999 L 82.225 9.559999999999999 L 82.225 33.8 C 82.225 35.45685424949238 83.56814575050761 36.8 85.225 36.8 L 110.095 36.8 Q 110.095 68.42 110.095 100.03999999999999 L 96.095 100.03999999999999 L 96.095 53.61999999999999 C 96.08926799935635 52.287592108973875 95.20541401155373 51.1186239315575 93.925 50.74999999999999 L 67.60499999999999 25.069999999999993 C 67.04640243723718 24.37151524173612 66.19937091275192 23.966413208286642 65.30499999999999 23.96999999999999 L 39.82499999999999 23.96999999999999 z M 68.285 34.45 L 86.195 51.230000000000004 L 68.285 51.230000000000004 L 68.285 34.45 z M 19.915 120.45 L 19.915 29.930000000000007 L 62.315 29.930000000000007 L 62.315 54.21000000000001 C 62.315 55.86685424949239 63.658145750507614 57.21000000000001 65.315 57.21000000000001 L 90.175 57.21000000000001 Q 90.175 88.85000000000001 90.175 120.45000000000002 L 19.914999999999992 120.45000000000002 z M 31.244999999999997 73.24000000000001 C 31.64334632259051 72.775398933053 32.22303390362187 72.50560722867363 32.835 72.50000000000001 L 67.985 72.50000000000001 C 68.5982987738409 72.50281817832672 69.18091282969897 72.76863584131196 69.585 73.23000000000002 C 69.99697104861187 73.69987557214108 70.22127081620009 74.30512891325218 70.21499999999999 74.93000000000002 C 70.21571619954439 75.55567990886074 69.98815794127495 76.16013153238895 69.57499999999999 76.63000000000002 C 69.17348962721233 77.09041042563199 68.595797251651 77.35927354381775 67.98499999999999 77.37000000000002 L 32.83499999999999 77.37000000000002 C 32.22198392513329 77.36589860374909 31.639871074720944 77.10030961574846 31.234999999999985 76.64000000000001 C 30.38699454110651 75.66529459129458 30.38699454110651 74.21470540870544 31.234999999999985 73.24000000000001 L 31.244999999999987 73.24000000000001 z M 31.244999999999997 102.18 C 31.639429180582795 101.71587227246378 32.21593959750641 101.44586106453754 32.824999999999996 101.44000000000001 L 77.785 101.44000000000001 C 78.39696609637812 101.44560722867362 78.97665367740949 101.715398933053 79.375 102.18 C 79.78815794127496 102.64986846761109 80.0157161995444 103.25432009113929 80.015 103.88000000000001 C 80.0212708162001 104.50487108674785 79.79697104861188 105.11012442785895 79.385 105.58000000000001 C 78.98091282969898 106.04136415868807 78.3982987738409 106.30718182167331 77.78500000000001 106.31000000000002 L 32.85500000000001 106.31000000000002 C 32.24491106001687 106.30561165288779 31.665992016347833 106.03981863283849 31.26500000000001 105.58000000000001 C 30.403737721058903 104.61029300044466 30.403737721058903 103.14970699955536 31.26500000000001 102.18 L 31.24500000000001 102.18 z M 77.785 86.97 C 78.39696609637812 86.97560722867361 78.97665367740949 87.24539893305298 79.375 87.71 C 80.22300545889347 88.68470540870543 80.22300545889347 90.13529459129455 79.375 91.11 C 78.9698709700542 91.56871580973883 78.38700385043387 91.83100601356799 77.775 91.83 L 32.855000000000004 91.83 C 32.246204577324036 91.82943120302781 31.667034622845698 91.56716556326404 31.265000000000004 91.11 C 30.847919640052616 90.63853074252006 30.61996155793395 90.02945524185925 30.625000000000004 89.4 C 30.622884026916033 88.7752369017753 30.85477369642627 88.17232376104867 31.275000000000002 87.71000000000001 C 31.6694291805828 87.24587227246379 32.24593959750642 86.97586106453753 32.855000000000004 86.97000000000001 L 77.785 86.97000000000001 z M 31.244999999999997 58.76 C 31.6475530544251 58.30227374240647 32.22548036962869 58.03693604423124 32.835 58.03 L 53.625 58.03 C 54.237003850433865 58.02899398643201 54.819870970054204 58.291284190261166 55.225 58.75 C 56.070164985135584 59.729561713858914 56.070164985135584 61.18043828614108 55.225 62.16 C 54.822446945574896 62.617726257593525 54.24451963037131 62.883063955768755 53.635 62.88999999999999 L 32.834999999999994 62.88999999999999 C 32.223273025116164 62.88971417629061 31.640912269279244 62.627651836164 31.234999999999992 62.169999999999995 C 30.389835014864403 61.190438286141074 30.389835014864403 59.73956171385891 31.234999999999992 58.75999999999999 L 31.244999999999994 58.75999999999999 z M 31.244999999999997 44.29 C 31.65058750063902 43.82494087596216 32.237926797350646 43.55863175385068 32.855 43.56 L 44.285 43.56 C 44.893795422675964 43.560568796972184 45.47296537715431 43.82283443673597 45.875 44.28 C 46.72016498513558 45.259561713858915 46.72016498513558 46.710438286141084 45.875 47.69 C 45.47631687227421 48.14722645253578 44.90159040108248 48.41276463226361 44.295 48.419999999999995 L 32.855000000000004 48.419999999999995 C 32.24731319336216 48.414358344001116 31.670115808591863 48.152985943350416 31.265000000000004 47.699999999999996 C 30.849555953637637 47.2275488838769 30.621840432070094 46.61912147468862 30.625000000000004 45.989999999999995 C 30.624236878099936 45.362496795721434 30.855780351775387 44.75692155687794 31.275000000000002 44.28999999999999 L 31.245 44.28999999999999 z M 88.215 14.04 L 106.125 30.82 L 88.215 30.82 L 88.215 14.04 z" stroke-linecap="round" />
</g>
<g transform="matrix(1 0 0 1 540 540)" id="798ed55a-4c9a-4808-8eb5-449fd02447f8"  >
<path style="stroke: rgb(0,0,0); stroke-width: 0; stroke-dasharray: none; stroke-linecap: butt; stroke-dashoffset: 0; stroke-linejoin: miter; stroke-miterlimit: 4; fill: rgb(248,248,248); fill-rule: nonzero; opacity: 1;" vector-effect="non-scaling-stroke"  transform=" translate(-51.09, -61.44)" d="M 102.17 29.66 C 102.16426799935637 28.327592108973885 101.28041401155373 27.158623931557504 100 26.79 L 73.62 1.1 C 73.0527940848382 0.406909134555307 72.2055922006598 0.0034796658989251217 71.31 2.220446049250313e-16 L 25.310000000000002 0 C 22.349753740906948 0 19.950000000000003 2.3997537409069474 19.950000000000003 5.36 L 19.950000000000003 20.41 L 5.36 20.41 C 2.3997537409069474 20.41 0 22.80975374090695 0 25.77 L 0 117.52 C 0 120.48024625909305 2.3997537409069474 122.88 5.36 122.88 L 76.9 122.88 C 79.84852381253793 122.86349681007887 82.23004618466085 120.46856999683706 82.23 117.52 L 82.23 102.52 L 96.82 102.52 C 99.76852381253792 102.50349681007887 102.15004618466084 100.10856999683706 102.14999999999999 97.16 Q 102.14999999999999 63.43 102.14999999999999 29.709999999999994 Z M 25.91 20.41 L 25.91 6 L 68.31 6 L 68.31 30.24 C 68.31 31.896854249492378 69.65314575050762 33.239999999999995 71.31 33.239999999999995 L 96.18 33.239999999999995 Q 96.18 64.86 96.18 96.47999999999999 L 82.18 96.47999999999999 L 82.18 50.05999999999999 C 82.17426799935636 48.72759210897387 81.29041401155374 47.5586239315575 80.01 47.18999999999999 L 53.69 21.51 C 53.131402437237185 20.811515241736128 52.28437091275192 20.40641320828665 51.39 20.41 Z M 54.37 30.89 L 72.28 47.67 L 54.37 47.67 L 54.37 30.89 Z M 6 116.89 L 6 26.37 L 48.4 26.37 L 48.4 50.65 C 48.4 52.30685424949238 49.743145750507615 53.65 51.4 53.65 L 76.26 53.65 Q 76.26 85.28999999999999 76.26 116.89 Z M 17.33 69.68 C 17.72834632259051 69.215398933053 18.308033903621865 68.94560722867362 18.919999999999998 68.94000000000001 L 54.07 68.94000000000001 C 54.683298773840896 68.94281817832672 55.26591282969897 69.20863584131196 55.67 69.67000000000002 C 56.08197104861187 70.13987557214108 56.306270816200104 70.74512891325217 56.300000000000004 71.37000000000002 C 56.300716199544404 71.99567990886074 56.073157941274964 72.60013153238894 55.660000000000004 73.07000000000002 C 55.258489627212356 73.53041042563198 54.68079725165103 73.79927354381775 54.07 73.81000000000002 L 18.92 73.81000000000002 C 18.3069839251333 73.80589860374909 17.72487107472096 73.54030961574846 17.32 73.08000000000001 C 16.471994541106525 72.10529459129458 16.471994541106525 70.65470540870544 17.32 69.68 Z M 17.33 98.62 C 17.724429180582796 98.15587227246378 18.300939597506414 97.88586106453754 18.909999999999997 97.88000000000001 L 63.87 97.88000000000001 C 64.48196609637813 97.88560722867362 65.06165367740948 98.155398933053 65.46 98.62 C 65.87315794127495 99.08986846761108 66.1007161995444 99.69432009113929 66.1 100.32000000000001 C 66.1062708162001 100.94487108674785 65.88197104861187 101.55012442785895 65.47 102.02000000000001 C 65.06591282969897 102.48136415868807 64.4832987738409 102.74718182167331 63.87 102.75000000000001 L 18.94 102.75000000000001 C 18.329911060016855 102.74561165288779 17.750992016347823 102.47981863283849 17.35 102.02000000000001 C 16.488737721058893 101.05029300044465 16.488737721058893 99.58970699955536 17.35 98.62 Z M 63.87 83.41 C 64.48196609637813 83.41560722867361 65.06165367740948 83.68539893305298 65.46 84.14999999999999 C 66.30800545889346 85.12470540870542 66.30800545889346 86.57529459129455 65.46 87.55 C 65.0548709700542 88.00871580973883 64.47200385043386 88.27100601356798 63.85999999999999 88.27 L 18.94 88.27 C 18.331204577324037 88.2694312030278 17.752034622845695 88.00716556326404 17.35 87.55 C 16.932919640052614 87.07853074252006 16.70496155793395 86.46945524185925 16.71 85.84 C 16.70788402691603 85.2152369017753 16.93977369642627 84.61232376104867 17.36 84.15 C 17.754429180582797 83.68587227246378 18.330939597506415 83.41586106453754 18.939999999999998 83.41000000000001 Z M 17.33 55.2 C 17.7325530544251 54.742273742406475 18.31048036962869 54.476936044231245 18.919999999999998 54.470000000000006 L 39.71 54.470000000000006 C 40.322003850433866 54.46899398643202 40.904870970054205 54.73128419026117 41.31 55.190000000000005 C 42.15516498513559 56.169561713858926 42.15516498513559 57.62043828614109 41.31 58.60000000000001 C 40.907446945574904 59.057726257593536 40.32951963037131 59.32306395576877 39.72 59.330000000000005 L 18.92 59.330000000000005 C 18.308273025116172 59.32971417629062 17.725912269279252 59.06765183616401 17.32 58.61000000000001 C 16.47483501486441 57.630438286141086 16.47483501486441 56.179561713858924 17.32 55.2 Z M 17.33 40.730000000000004 C 17.73558750063902 40.26494087596217 18.32292679735065 39.99863175385068 18.94 40 L 30.37 40 C 30.978795422675965 40.00056879697218 31.55796537715431 40.262834436735965 31.96 40.72 C 32.80516498513558 41.69956171385891 32.80516498513558 43.15043828614108 31.96 44.129999999999995 C 31.56131687227421 44.58722645253578 30.986590401082477 44.85276463226361 30.380000000000003 44.85999999999999 L 18.94 44.85999999999999 C 18.332313193362157 44.85435834400111 17.75511580859186 44.59298594335041 17.35 44.13999999999999 C 16.934555953637634 43.6675488838769 16.70684043207009 43.05912147468862 16.71 42.42999999999999 C 16.709236878099933 41.80249679572143 16.940780351775384 41.19692155687794 17.36 40.72999999999999 Z M 74.3 10.48 L 92.21 27.26 L 74.3 27.26 L 74.3 10.48 Z" stroke-linecap="round" />
</g>
</svg>