<svg xmlns="http://www.w3.org/2000/svg" xmlns:xlink="http://www.w3.org/1999/xlink" version="1.1" width="1000" height="1000" viewBox="0 0 1000 1000" xml:space="preserve">
<desc>Created with Fabric.js 3.5.0</desc>
<defs>
</defs>
<rect x="0" y="0" width="100%" height="100%" fill="#ffffff"/>
<g transform="matrix(0 7.3982 -7.3982 0 500.0001 499.9999)" id="581017">
<path style="stroke: none; stroke-width: 1; stroke-dasharray: none; stroke-linecap: butt; stroke-dashoffset: 0; stroke-linejoin: miter; stroke-miterlimit: 4; is-custom-font: none; font-file-url: none; fill: rgb(255,255,255); fill-rule: nonzero; opacity: 1;" vector-effect="non-scaling-stroke" transform=" translate(-65, -65)" d="m 116.085 33.22 a 3 3 0 0 0 -2.17 -2.87 l -26.38 -25.69 a 3 3 0 0 0 -2.31 -1.1 l -46 0 a 5.36 5.36 0 0 0 -5.36 5.36 l 0 15.05 l -14.59 0 a 5.36 5.36 0 0 0 -5.36 5.36 l 0 91.75 a 5.36 5.36 0 0 0 5.36 5.36 l 71.54 0 a 5.36 5.36 0 0 0 5.33 -5.36 l 0 -15 l 14.59 0 a 5.36 5.36 0 0 0 5.33 -5.36 q 0 -33.73 0 -67.45 l 0.02 -0.05 z m -76.26 -9.25 l 0 -14.41 l 42.4 0 l 0 24.24 a 3 3 0 0 0 3 3 l 24.87 0 q 0 31.62 0 63.24 l -14 0 l 0 -46.42 a 3 3 0 0 0 -2.17 -2.87 l -26.32 -25.68 a 2.93 2.93 0 0 0 -2.3 -1.1 l -25.48 0 z m 28.46 10.48 l 17.91 16.78 l -17.91 0 l 0 -16.78 z m -48.37 86 l 0 -90.52 l 42.4 0 l 0 24.28 a 3 3 0 0 0 3 3 l 24.86 0 q 0 31.64 0 63.24 l -70.26 0 z m 11.33 -47.21 a 2.12 2.12 0 0 1 1.59 -0.74 l 35.15 0 a 2.14 2.14 0 0 1 1.6 0.73 a 2.54 2.54 0 0 1 0.63 1.7 a 2.57 2.57 0 0 1 -0.64 1.7 a 2.16 2.16 0 0 1 -1.59 0.74 l -35.15 0 a 2.15 2.15 0 0 1 -1.6 -0.73 a 2.59 2.59 0 0 1 0 -3.4 l 0.01 0 z m 0 28.94 a 2.1 2.1 0 0 1 1.58 -0.74 l 44.96 0 a 2.12 2.12 0 0 1 1.59 0.74 a 2.57 2.57 0 0 1 0.64 1.7 a 2.54 2.54 0 0 1 -0.63 1.7 a 2.14 2.14 0 0 1 -1.6 0.73 l -44.93 0 a 2.13 2.13 0 0 1 -1.59 -0.73 a 2.56 2.56 0 0 1 0 -3.4 l -0.02 0 z m 46.54 -15.21 a 2.12 2.12 0 0 1 1.59 0.74 a 2.59 2.59 0 0 1 0 3.4 a 2.13 2.13 0 0 1 -1.6 0.72 l -44.92 0 a 2.12 2.12 0 0 1 -1.59 -0.72 a 2.55 2.55 0 0 1 -0.64 -1.71 a 2.5 2.5 0 0 1 0.65 -1.69 a 2.1 2.1 0 0 1 1.58 -0.74 l 44.93 0 z m -46.54 -28.21 a 2.15 2.15 0 0 1 1.59 -0.73 l 20.79 0 a 2.13 2.13 0 0 1 1.6 0.72 a 2.61 2.61 0 0 1 0 3.41 a 2.15 2.15 0 0 1 -1.59 0.73 l -20.8 0 a 2.14 2.14 0 0 1 -1.6 -0.72 a 2.61 2.61 0 0 1 0 -3.41 l 0.01 0 z m 0 -14.47 a 2.13 2.13 0 0 1 1.61 -0.73 l 11.43 0 a 2.12 2.12 0 0 1 1.59 0.72 a 2.61 2.61 0 0 1 0 3.41 a 2.13 2.13 0 0 1 -1.58 0.73 l -11.44 0 a 2.16 2.16 0 0 1 -1.59 -0.72 a 2.57 2.57 0 0 1 -0.64 -1.71 a 2.54 2.54 0 0 1 0.65 -1.7 l -0.03 0 z m 56.97 -30.25 l 17.91 16.78 l -17.91 0 l 0 -16.78 z" stroke-linecap="round"/>
</g>
</svg>